<svg width="192" height="192" viewBox="0 0 192 192" fill="none" xmlns="http://www.w3.org/2000/svg">
<path d="M127.211 1.99623C145.44 7.00147 161.265 18.8512 172.696 33.9072C183.952 48.7326 188.81 67.0607 190.671 85.5816C192.526 104.037 192.105 123.267 183.319 139.603C174.643 155.734 158.538 165.768 142.645 174.873C126.927 183.879 110.284 192.088 92.1708 191.825C73.834 191.559 56.7701 183.581 41.514 173.405C26.0141 163.066 11.2557 150.508 4.31044 133.219C-2.60844 115.996 0.100903 96.9258 3.45743 78.6709C6.81101 60.4321 10.7362 41.3518 23.6494 28.042C36.4706 14.827 55.4957 11.1207 73.3521 6.62982C91.1884 2.14398 109.476 -2.87347 127.211 1.99623Z" fill="black"/>
</svg>
