<svg width="378" height="200" viewBox="0 0 378 200" fill="none" xmlns="http://www.w3.org/2000/svg">
<rect width="378" height="200" fill="#C89666"/>
<path d="M67.0779 83.2582C69.4623 48.424 46.7787 21.2385 35.1388 12C40.2931 17.624 49.6841 39.8668 46.0141 83.8463C42.3441 127.826 70.6297 154.888 85.2313 162.922C65.2891 143.373 64.0973 126.801 67.0779 83.2582Z" fill="#12343B" stroke="black"/>
<path d="M147.376 115.664C148.912 115.664 149.68 117.925 149.68 122.448C149.68 129.019 147.973 134.651 144.56 139.344C141.232 144.037 136.88 146.384 131.504 146.384C126.128 146.384 121.648 144.507 118.064 140.752C114.565 136.912 112.816 132.005 112.816 126.032V107.856C112.816 97.7013 110.256 92.624 105.136 92.624C100.613 92.624 96.9013 94.928 94 99.536C91.0987 104.144 89.648 111.867 89.648 122.704V144.592C88.7947 145.787 87.3013 146.384 85.168 146.384C83.0347 146.384 81.328 145.744 80.048 144.464C78.768 143.099 78.128 141.136 78.128 138.576V74.448C78.128 63.3547 79.1947 55.3333 81.328 50.384C83.4613 45.3493 87.5573 42.832 93.616 42.832C96.8587 42.832 99.376 44.1973 101.168 46.928C102.96 49.6587 103.856 53.5413 103.856 58.576C103.856 67.7067 99.12 77.008 89.648 86.48V97.744C93.232 91.344 98.9067 88.144 106.672 88.144C112.219 88.144 116.613 89.8933 119.856 93.392C123.184 96.8907 124.848 101.925 124.848 108.496V126.672C124.848 131.536 125.616 135.205 127.152 137.68C128.688 140.155 130.949 141.392 133.936 141.392C136.923 141.392 139.568 139.387 141.872 135.376C144.261 131.28 145.456 124.965 145.456 116.432C145.541 115.92 146.181 115.664 147.376 115.664ZM89.648 80.336C95.4507 72.8267 98.352 65.5307 98.352 58.448C98.352 51.3653 96.816 47.824 93.744 47.824C92.0373 47.824 90.928 49.7867 90.416 53.712C89.904 57.6373 89.648 66.512 89.648 80.336ZM157.273 124.24V144.592C156.42 145.787 154.926 146.384 152.793 146.384C150.66 146.384 148.953 145.744 147.673 144.464C146.393 143.099 145.753 141.136 145.753 138.576V89.936C146.606 88.7413 148.1 88.144 150.233 88.144C152.366 88.144 154.073 88.8267 155.353 90.192C156.633 91.472 157.273 93.392 157.273 95.952V105.68C161.54 95.0987 167.428 89.808 174.937 89.808C180.313 89.808 184.238 91.2587 186.713 94.16C189.188 96.976 190.425 100.347 190.425 104.272C190.425 106.405 189.785 108.112 188.505 109.392C187.225 110.672 185.988 111.312 184.793 111.312C182.574 111.312 181.124 110.8 180.441 109.776C180.953 108.496 181.209 106.661 181.209 104.272C181.209 101.883 180.398 99.7067 178.777 97.744C177.156 95.7813 175.193 94.8 172.889 94.8C168.878 94.8 165.252 98.4693 162.009 105.808C158.852 113.061 157.273 119.205 157.273 124.24ZM196.271 75.6C194.82 74.1493 194.095 72.3573 194.095 70.224C194.095 68.0907 194.82 66.2987 196.271 64.848C197.722 63.312 199.514 62.544 201.647 62.544C203.78 62.544 205.572 63.312 207.023 64.848C208.559 66.2987 209.327 68.0907 209.327 70.224C209.327 72.3573 208.559 74.1493 207.023 75.6C205.572 77.0507 203.78 77.776 201.647 77.776C199.514 77.776 197.722 77.0507 196.271 75.6ZM195.759 95.952C195.759 93.392 196.399 91.472 197.679 90.192C198.959 88.8267 200.58 88.144 202.543 88.144C204.506 88.144 206.084 88.7413 207.279 89.936V126.672C207.279 131.536 208.218 135.205 210.095 137.68C211.972 140.155 214.532 141.392 217.775 141.392C221.018 141.392 224.047 139.429 226.863 135.504C229.679 131.579 231.087 125.221 231.087 116.432C231.258 115.92 231.898 115.664 233.007 115.664C234.543 115.664 235.311 117.925 235.311 122.448C235.311 129.019 233.519 134.651 229.935 139.344C226.351 144.037 221.786 146.384 216.239 146.384C209.327 146.384 204.164 144.336 200.751 140.24C197.423 136.144 195.759 130.341 195.759 122.832V95.952ZM230.095 95.952C230.095 93.392 230.735 91.472 232.015 90.192C233.295 88.8267 234.916 88.144 236.879 88.144C238.842 88.144 240.42 88.7413 241.615 89.936V117.072C241.615 133.627 246.522 141.904 256.335 141.904C258.468 141.904 260.346 141.264 261.967 139.984C258.383 136.571 255.695 132.304 253.903 127.184C252.111 122.064 251.215 117.115 251.215 112.336C251.215 103.888 252.41 97.5307 254.799 93.264C257.274 88.912 261.412 86.736 267.215 86.736C271.226 86.736 274.426 88.1013 276.815 90.832C279.29 93.5627 280.527 97.1893 280.527 101.712C280.527 118.011 276.986 130.384 269.903 138.832C272.804 140.539 276.047 141.392 279.631 141.392C284.41 141.392 288.335 139.344 291.407 135.248C294.479 131.152 296.015 124.88 296.015 116.432C296.1 115.92 296.74 115.664 297.935 115.664C299.471 115.664 300.239 117.669 300.239 121.68C300.239 128.763 298.447 134.651 294.863 139.344C291.279 144.037 285.818 146.384 278.479 146.384C273.53 146.384 269.263 145.189 265.679 142.8C262.266 145.189 258.639 146.384 254.799 146.384C247.46 146.384 241.487 143.739 236.879 138.448C232.356 133.157 230.095 125.819 230.095 116.432V95.952ZM265.295 93.648C260.26 93.648 257.743 99.152 257.743 110.16C257.743 121.168 260.346 129.573 265.551 135.376C268.794 129.317 270.415 119.205 270.415 105.04C270.415 97.4453 268.708 93.648 265.295 93.648ZM349.76 117.2C351.552 117.2 352.448 118.565 352.448 121.296C352.448 127.611 350.229 133.371 345.792 138.576C341.44 143.781 334.784 146.384 325.824 146.384C316.864 146.384 309.653 143.995 304.192 139.216C298.816 134.352 296.128 127.269 296.128 117.968C296.128 108.581 298.517 101.285 303.296 96.08C308.075 90.7893 314.176 88.144 321.6 88.144C326.976 88.144 330.901 89.5947 333.376 92.496C335.851 95.312 337.088 98.6827 337.088 102.608C337.088 109.008 334.4 114.341 329.024 118.608C323.733 122.789 316.949 124.88 308.672 124.88C309.44 130.341 311.403 134.48 314.56 137.296C317.803 140.027 322.027 141.392 327.232 141.392C332.523 141.392 337.259 139.429 341.44 135.504C345.707 131.493 347.84 125.648 347.84 117.968C347.925 117.456 348.565 117.2 349.76 117.2ZM308.288 118.992V120.144C313.579 119.461 318.144 117.797 321.984 115.152C325.909 112.507 327.872 108.581 327.872 103.376C327.872 100.048 327.147 97.5307 325.696 95.824C324.245 94.032 322.197 93.136 319.552 93.136C315.541 93.136 312.64 95.0987 310.848 99.024C309.141 102.949 308.288 109.605 308.288 118.992Z" fill="#12343B"/>
</svg>
