<svg width="299" height="49" viewBox="0 0 299 49" fill="none" xmlns="http://www.w3.org/2000/svg">
<path d="M2 41.4448C19.8792 20.7409 67.9544 -25.0002 117.221 24.6891C166.489 74.3783 208.935 29.6002 224 1" stroke="#F1B24A" stroke-width="3"/>
<path d="M11 41.4448C28.8792 20.7409 76.9544 -25.0002 126.221 24.6891C175.489 74.3783 217.935 29.6002 233 1" stroke="#F1B24A" stroke-width="3"/>
<path d="M20 41.4448C37.8792 20.7409 85.9544 -25.0002 135.221 24.6891C184.489 74.3783 226.935 29.6002 242 1" stroke="#F1B24A" stroke-width="3"/>
<path d="M29 41.4448C46.8792 20.7409 94.9544 -25.0002 144.221 24.6891C193.489 74.3783 235.935 29.6002 251 1" stroke="#F1B24A" stroke-width="3"/>
<path d="M38 41.4448C55.8792 20.7409 103.954 -25.0002 153.221 24.6891C202.489 74.3783 244.935 29.6002 260 1" stroke="#F1B24A" stroke-width="3"/>
<path d="M47 41.4448C64.8792 20.7409 112.954 -25.0002 162.221 24.6891C211.489 74.3783 253.935 29.6002 269 1" stroke="#F1B24A" stroke-width="3"/>
<path d="M56 41.4448C73.8792 20.7409 121.954 -25.0002 171.221 24.6891C220.489 74.3783 262.935 29.6002 278 1" stroke="#F1B24A" stroke-width="3"/>
<path d="M56 41.4448C73.8792 20.7409 121.954 -25.0002 171.221 24.6891C220.489 74.3783 262.935 29.6002 278 1" stroke="#F1B24A" stroke-width="3"/>
<path d="M56 41.4448C73.8792 20.7409 121.954 -25.0002 171.221 24.6891C220.489 74.3783 262.935 29.6002 278 1" stroke="#F1B24A" stroke-width="3"/>
<path d="M65 41.4448C82.8792 20.7409 130.954 -25.0002 180.221 24.6891C229.489 74.3783 271.935 29.6002 287 1" stroke="#F1B24A" stroke-width="3"/>
<path d="M75 41.4448C92.8792 20.7409 140.954 -25.0002 190.221 24.6891C239.489 74.3783 281.935 29.6002 297 1" stroke="#F1B24A" stroke-width="3"/>
</svg>
