<svg width="180" height="178" viewBox="0 0 180 178" fill="none" xmlns="http://www.w3.org/2000/svg">
<path d="M118.535 1.00275C134.997 4.80219 149.639 14.9619 160.432 27.9593C171.186 40.9094 177.758 57.171 179.11 73.9496C180.403 89.9951 174.494 105.401 167.854 120.066C161.591 133.9 153.572 146.917 141.756 156.456C130.08 165.881 115.773 170.757 101.11 173.944C86.0386 177.22 70.6799 178.612 55.6454 175.171C39.422 171.459 21.879 166.579 11.6272 153.469C1.43303 140.432 2.9504 122.231 1.3668 105.758C-0.10486 90.449 -1.24354 75.2945 2.68279 60.4246C6.84878 44.647 11.7314 27.5858 24.6428 17.6067C37.459 7.70098 55.3527 10.2085 71.3033 7.38777C87.2189 4.57326 102.787 -2.63212 118.535 1.00275Z" fill="black"/>
</svg>
