<svg width="193" height="181" viewBox="0 0 193 181" fill="none" xmlns="http://www.w3.org/2000/svg">
<path d="M127.818 2.54926C141.61 5.87055 156.325 10.3975 165.446 21.2629C174.528 32.0827 172.767 48.0149 177.233 61.417C181.775 75.0459 193.157 86.9602 192.112 101.288C191.065 115.655 180.625 127.483 171.598 138.709C163.006 149.394 152.508 158.072 140.763 165.147C128.93 172.276 116.523 180.002 102.71 180.206C89.0557 180.408 77.3509 171.492 64.7328 166.272C52.3835 161.163 39.2631 157.958 28.8085 149.633C17.6191 140.723 6.92326 130.106 2.31234 116.566C-2.32107 102.959 1.12093 88.2354 3.05003 73.9919C4.99132 59.6583 6.34401 44.9416 13.6997 32.4872C21.2127 19.7664 31.6711 7.78353 45.3904 2.30229C58.8407 -3.07146 73.8121 2.64046 88.2961 2.68386C101.637 2.72383 114.847 -0.574251 127.818 2.54926Z" fill="black"/>
</svg>
