<svg width="179" height="181" viewBox="0 0 179 181" fill="none" xmlns="http://www.w3.org/2000/svg">
<path d="M134.135 17.6256C149.075 28.3327 158.905 43.9507 166.185 60.8287C173.763 78.3974 181.831 97.4868 176.506 115.864C171.216 134.124 153.851 145.293 138.474 156.471C123.865 167.09 108.252 175.671 90.4073 178.45C70.8948 181.49 49.4857 183.604 32.8791 172.918C16.2391 162.21 9.43512 141.779 3.89782 122.782C-1.2547 105.105 -0.872438 87.0016 2.56323 68.9124C6.26951 49.3984 9.40457 28.0919 24.364 15.0248C39.5357 1.77238 61.2489 -0.418152 81.3879 0.0590024C100.379 0.508963 118.694 6.55997 134.135 17.6256Z" fill="black"/>
</svg>
